# xmcd
#
# Track frame offsets: 
#        151
#        13317
#        32871
#        45255
#        66718
#        80628
#        97767
#        113707
#        124830
#
# Disc length: 1833 seconds
#
# Revision: 1
# Processed by: cddbd v1.5.2PL0 Copyright (c) Steve Scherf et al.
# Submitted via: ExactAudioCopy v1.0b4
#
DISCID=74072709
DTITLE=Rod Piazza and the Chicago Flying Saucer Band - Chicago Flying Sa
DTITLE=ucer
DYEAR=1979
DGENRE=Blues
TTITLE0=Rocker
TTITLE1=Rock With You Baby
TTITLE2=Honey Boy
TTITLE3=Rockin Daddy
TTITLE4=The Bounce
TTITLE5=Talk To Your Daughter
TTITLE6=Blue Midnight
TTITLE7=I Want To Be Loved
TTITLE8=Last Freight Twist
EXTD=
EXTT0=
EXTT1=
EXTT2=
EXTT3=
EXTT4=
EXTT5=
EXTT6=
EXTT7=
EXTT8=
PLAYORDER=
